# xmcd
#
# Track frame offsets: 
#        150
#        21806
#        46374
#        64203
#        83927
#        98970
#        119198
#        142969
#        161367
#        180413
#
# Disc length: 2702 seconds
#
# Revision: 0
# Processed by: cddbd v1.5.2PL0 Copyright (c) Steve Scherf et al.
# Submitted via: ExactAudioCopy v0.95b4
#
DISCID=840a8c0a
DTITLE=Various Artist - Sandhyatara
DYEAR=2006
DGENRE=Pop
TTITLE0=Sandhyatara- Tapan Chowdhury
TTITLE1=Ratri Ene Debo - Kumar Biswajit
TTITLE2=Jatota Kachhe Ele - Tapan Chowdhury
TTITLE3=Kato Megh - Kumar Biswajit
TTITLE4=Haat Bariye Nio - Kumar Biswajit
TTITLE5=Duhkha Bholar Santwana-Tapan Chowdhury
TTITLE6=Perechho Ki Chinte-Kumar Biswajit
TTITLE7=Thamke Jaoa Nadi-Tapan CHowdhury
TTITLE8=Duhkha Jayna Chhere-Tapan Chowdhury
TTITLE9=Paharer Kashta-Kumar Biswajit
EXTD=
EXTT0=
EXTT1=
EXTT2=
EXTT3=
EXTT4=
EXTT5=
EXTT6=
EXTT7=
EXTT8=
EXTT9=
PLAYORDER=
